<?xml version="1.0" encoding="utf-8"?>
<!-- Generator: Adobe Illustrator 22.0.0, SVG Export Plug-In . SVG Version: 6.00 Build 0)  -->
<svg version="1.1" id="in" xmlns="http://www.w3.org/2000/svg" xmlns:xlink="http://www.w3.org/1999/xlink" x="0px" y="0px"
	 viewBox="0 0 64 64" style="enable-background:new 0 0 64 64;" xml:space="preserve">
<style type="text/css">
	.st0{fill:#FFFFFF;}
</style>
<g>
	<path class="st0" d="M32,0C14.3,0,0,14.3,0,32s14.3,32,32,32s32-14.3,32-32S49.7,0,32,0z M20.7,51.7h-8.3V25h8.3V51.7z M16.5,21.4
		c-2.7,0-4.8-2.1-4.8-4.8c0-2.7,2.1-4.8,4.8-4.8c2.6,0,4.8,2.1,4.8,4.8C21.3,19.2,19.2,21.4,16.5,21.4z M51.7,51.6h-8.3v-13
		c0-3.1-0.1-7.1-4.3-7.1c-4.3,0-4.9,3.4-4.9,6.9v13.2h-8.3L25.8,25h8v3.6h0.1c1.1-2.1,3.8-4.3,7.8-4.3c8.4,0,10,5.5,10,12.7V51.6z"
		/>
</g>
</svg>
