<?xml version="1.0" encoding="utf-8"?>
<!-- Generator: Adobe Illustrator 22.0.0, SVG Export Plug-In . SVG Version: 6.00 Build 0)  -->
<svg version="1.1" id="Warstwa_1" xmlns="http://www.w3.org/2000/svg" xmlns:xlink="http://www.w3.org/1999/xlink" x="0px" y="0px"
	 viewBox="0 0 16 16" style="enable-background:new 0 0 16 16;" xml:space="preserve">
<style type="text/css">
	.st0{fill:#999492;}
</style>
<g>
	<g>
		<path class="st0" d="M8,8.6c1.8,0,3.6,0,5.5,0c0.4,0,0.7,0.3,0.6,0.8c-0.3,1.3-0.6,2.7-0.9,4c-0.1,0.5-0.2,0.9-0.3,1.4
			c-0.1,0.3-0.3,0.5-0.6,0.5c-0.6,0-1.2,0-1.8,0c-1.8,0-3.5,0-5.3,0c-0.5,0-1,0-1.5,0c-0.4,0-0.6-0.2-0.7-0.6
			c-0.1-0.6-0.2-1.1-0.3-1.7C2.4,11.9,2.2,10.8,2,9.6c0-0.1,0-0.2-0.1-0.4C1.8,8.9,2.1,8.6,2.4,8.6c0.6,0,1.2,0,1.9,0
			C5.5,8.6,6.8,8.6,8,8.6C8,8.6,8,8.6,8,8.6z M8,11.7c-0.2,0-0.3,0.1-0.3,0.3c0,0.2,0.1,0.3,0.3,0.3c0.2,0,0.3-0.2,0.3-0.3
			C8.3,11.8,8.2,11.7,8,11.7z"/>
		<path class="st0" d="M8,8.5c-1.5,0-3,0-4.5,0c-0.2,0-0.2,0-0.1-0.2C3.5,7.8,3.8,7.4,4.2,7C4.4,6.8,4.7,6.7,5,6.6
			c0.1,0,0.2-0.1,0.3-0.2c0.1-0.2,0.1-0.4,0.2-0.5c0-0.2,0.1-0.4,0.1-0.6c0-0.5-0.1-1.1-0.1-1.6c-0.1-0.4,0-0.8,0.1-1.2
			c0.1-0.5,0.2-1,0.5-1.4c0.4-0.6,0.9-0.9,1.6-1c0.4,0,0.7,0,1.1,0c0.8,0.2,1.4,0.7,1.7,1.5c0.3,0.6,0.3,1.3,0.3,1.9
			c0,0.3-0.1,0.6-0.1,0.9c-0.1,0.6-0.1,1.1,0.1,1.7c0,0.1,0.1,0.2,0.1,0.4c0,0.1,0.1,0.1,0.2,0.2c0.6,0.1,1,0.4,1.3,0.9
			c0.2,0.3,0.3,0.5,0.4,0.8c0,0.1,0,0.1-0.1,0.1c-0.7,0-1.3,0-2,0C9.7,8.5,8.8,8.5,8,8.5C8,8.5,8,8.5,8,8.5z M8,6.1
			c0.1,0,0.1,0,0.2,0c0,0,0.1,0,0.1,0C8.7,6,9,5.7,9.3,5.3c0.2-0.2,0.3-0.5,0.4-0.8c0-0.1,0-0.2,0.2-0.2c0,0,0,0,0.1-0.1
			c0.2-0.2,0.2-0.5,0.2-0.8c0-0.2-0.1-0.2-0.2-0.1c-0.1,0.1-0.2,0.1-0.3,0C8.8,3.1,8,2.6,7.2,2.2C7.1,2.2,7,2.2,7,2.2
			c-0.3,0-0.6,0.3-0.7,0.6C6.2,2.9,6.1,3.1,6.1,3.3c0,0,0,0.1-0.1,0.1c-0.1,0-0.1,0.1-0.2,0.2C5.8,3.8,5.9,4,6,4.2
			c0,0,0.1,0.1,0.1,0.1c0.1,0,0.1,0.1,0.1,0.1C6.4,4.9,6.7,5.3,7,5.6C7.3,5.9,7.6,6.1,8,6.1z M6.7,5.9c0,0.2-0.2,0.4-0.4,0.5
			c-0.1,0-0.1,0.1-0.1,0.2c0,0,0,0.1,0.1,0.1c0.2,0.2,0.5,0.4,0.7,0.5C8,7.5,8.8,7.4,9.5,6.8c0.1-0.1,0.2-0.2,0.2-0.3
			c0,0,0-0.1,0-0.1C9.5,6.3,9.3,6.2,9.3,5.9C8.3,6.8,7.5,6.6,6.7,5.9z"/>
		<path class="st0" d="M8,15.4c1.6,0,3.2,0,4.8,0c0.2,0,0.3,0.1,0.3,0.2c0,0.2-0.1,0.3-0.3,0.3c-0.3,0-0.6,0-0.9,0c-2.5,0-5,0-7.5,0
			c-0.5,0-0.9,0-1.4,0c-0.2,0-0.3-0.1-0.3-0.3c0-0.2,0.1-0.2,0.3-0.2C4.8,15.4,6.4,15.4,8,15.4z"/>
	</g>
</g>
</svg>
